<?xml version="1.0" encoding="utf-8"?>
<!-- Generator: Adobe Illustrator 16.0.0, SVG Export Plug-In . SVG Version: 6.00 Build 0)  -->
<!DOCTYPE svg PUBLIC "-//W3C//DTD SVG 1.1//EN" "http://www.w3.org/Graphics/SVG/1.1/DTD/svg11.dtd">
<svg version="1.1" id="Capa_1" xmlns="http://www.w3.org/2000/svg" xmlns:xlink="http://www.w3.org/1999/xlink" x="0px" y="0px"
	 width="595.28px" height="595.28px" viewBox="0 0 595.28 595.28" enable-background="new 0 0 595.28 595.28" xml:space="preserve">
<g>
	<path fill="#211915" d="M411.421,297.108c0,62.92-51.007,113.922-113.922,113.922c-62.919,0-113.926-51.002-113.926-113.922
		c0-62.918,51.007-113.92,113.926-113.92C360.414,183.188,411.421,234.19,411.421,297.108L411.421,297.108z"/>
	<polygon fill="#FFFFFF" points="345.467,317.185 250.574,317.185 250.574,260.063 242.743,260.063 242.743,323.634 
		353.758,323.634 353.758,260.063 345.467,260.063 345.467,317.185 	"/>
	<polygon fill="#FFFFFF" points="242.863,360.356 247.902,363.8 273.836,325.015 266.549,325.015 242.863,360.356 	"/>
	<polygon fill="#FFFFFF" points="354.057,360.356 349.018,363.8 323.084,325.015 330.371,325.015 354.057,360.356 	"/>
	<polygon fill="#FFFFFF" points="362.104,258.011 234.654,258.011 234.654,248.962 362.104,248.962 362.104,258.011 	"/>
	<polygon fill="#FFFFFF" points="233.148,258.011 226.297,258.011 226.297,248.962 233.148,248.962 233.148,258.011 	"/>
	<polygon fill="#FFFFFF" points="370.608,258.011 363.758,258.011 363.758,248.962 370.608,248.962 370.608,258.011 	"/>
	<path fill="#FFFFFF" d="M298.379,238.386c8.633,0,15.896,4.174,17.998,11.545h4.431c-2.192-9.213-11.401-15.137-22.429-15.137
		s-20.236,5.924-22.428,15.137h4.431C282.482,242.56,289.742,238.386,298.379,238.386L298.379,238.386z"/>
	<polygon fill="#FFFFFF" points="267.659,310.97 265.678,310.97 265.678,276.288 267.659,276.288 267.659,310.97 	"/>
	<polygon fill="#FFFFFF" points="272.214,310.97 270.234,310.97 270.234,280.991 272.214,280.991 272.214,310.97 	"/>
	<polygon fill="#FFFFFF" points="276.77,310.97 274.789,310.97 274.789,269.282 276.77,269.282 276.77,310.97 	"/>
	<polygon fill="#FFFFFF" points="281.326,310.97 279.345,310.97 279.345,285.989 281.326,285.989 281.326,310.97 	"/>
	<polygon fill="#FFFFFF" points="285.881,310.97 283.901,310.97 283.901,267.472 285.881,267.472 285.881,310.97 	"/>
	<polygon fill="#FFFFFF" points="290.438,310.97 288.458,310.97 288.458,274.966 290.438,274.966 290.438,310.97 	"/>
	<polygon fill="#FFFFFF" points="294.994,310.97 293.012,310.97 293.012,292.405 294.994,292.405 294.994,310.97 	"/>
	<polygon fill="#FFFFFF" points="299.549,310.97 297.564,310.97 297.564,270.802 299.549,270.802 299.549,310.97 	"/>
	<polygon fill="#FFFFFF" points="304.105,310.97 302.119,310.97 302.119,281.382 304.105,281.382 304.105,310.97 	"/>
	<polygon fill="#FFFFFF" points="308.66,310.97 306.676,310.97 306.676,300.315 308.66,300.315 308.66,310.97 	"/>
	<polygon fill="#FFFFFF" points="313.217,310.97 311.23,310.97 311.23,277.095 313.217,277.095 313.217,310.97 	"/>
	<polygon fill="#FFFFFF" points="317.771,310.97 315.787,310.97 315.787,290.126 317.771,290.126 317.771,310.97 	"/>
	<polygon fill="#FFFFFF" points="322.328,310.97 320.342,310.97 320.342,270.483 322.328,270.483 322.328,310.97 	"/>
	<polygon fill="#FFFFFF" points="326.885,310.97 324.898,310.97 324.898,277.757 326.885,277.757 326.885,310.97 	"/>
	<polygon fill="#FFFFFF" points="331.439,310.97 329.455,310.97 329.455,294.364 331.439,294.364 331.439,310.97 	"/>
</g>
</svg>
