<?xml version="1.0" encoding="utf-8"?>
<!-- Generator: Adobe Illustrator 16.0.0, SVG Export Plug-In . SVG Version: 6.00 Build 0)  -->
<!DOCTYPE svg PUBLIC "-//W3C//DTD SVG 1.1//EN" "http://www.w3.org/Graphics/SVG/1.1/DTD/svg11.dtd">
<svg version="1.1" id="Capa_1" xmlns="http://www.w3.org/2000/svg" xmlns:xlink="http://www.w3.org/1999/xlink" x="0px" y="0px"
	 width="595.28px" height="595.28px" viewBox="0 0 595.28 595.28" enable-background="new 0 0 595.28 595.28" xml:space="preserve">
<g>
	<path fill="#5B5B5F" d="M412.129,297.22c0,62.919-51.007,113.921-113.921,113.921c-62.919,0-113.921-51.002-113.921-113.921
		c0-62.92,51.002-113.922,113.921-113.922C361.122,183.298,412.129,234.3,412.129,297.22L412.129,297.22z"/>
	<polygon fill="#FFFFFF" points="293.035,253.68 272.767,253.68 272.767,245.314 237.569,258.641 272.767,272.073 272.767,263.353 
		293.035,263.353 293.035,253.68 	"/>
	<polygon fill="#FFFFFF" points="299.945,263.813 320.213,263.813 320.213,272.073 355.41,258.746 320.213,245.314 320.213,254.14 
		299.945,254.14 299.945,263.813 	"/>
	<polygon fill="#FFFFFF" points="301.327,261.971 301.327,241.702 309.692,241.702 296.365,206.505 282.934,241.702 
		291.653,241.702 291.653,261.971 301.327,261.971 	"/>
	<polygon fill="#FFFFFF" points="291.653,255.061 291.653,275.329 283.288,275.329 296.614,310.527 310.047,275.329 
		301.327,275.329 301.327,255.061 291.653,255.061 	"/>
	<path fill="#FFFFFF" d="M293.505,339.575l31.996,0.134c0,0,5.312-1.921,4.86-6.104l0.134-29.444c0,0-3.387-8.314-9.522-0.073
		l-0.317,0.368c0,0,1.212-5.137-0.939-6.661c0,0-4.28-5.339-8.771,1.663c0,0,1.096-7.462-3.031-8.204c0,0-4.031-1.926-6.754,3.63
		c0,0,0.396-13.041-0.004-14.192c0,0,1.17-9.347-4.385-9.25c0,0-7.09-1.275-4.961,13.382l-0.111,22.659c0,0,0.142,4.51-2.911,2.16
		l-4.565-8.057c0,0-3.625-1.893-5.864-0.35c-2.238,1.548-0.874,4.569-0.506,5.537C277.852,306.773,292.344,340.013,293.505,339.575
		L293.505,339.575z"/>
	<path fill="#5B5B5F" d="M296.356,268.65L296.356,268.65c-1.151,0-3.357,0.313-5.178,2.418c-2.372,2.741-3.072,7.302-2.137,13.944
		l-0.092,19.306l-2.321-4.096l-0.401-0.71l-0.724-0.377c-0.248-0.129-2.501-1.267-4.97-1.267c-1.432,0-2.69,0.368-3.745,1.096
		c-1.704,1.175-2.571,3.031-2.437,5.229c0.092,1.446,0.585,2.709,0.848,3.386l0.069,0.171l0.022,0.064l0.028,0.064
		c0.037,0.083,3.626,8.314,7.333,16.444c2.188,4.786,3.989,8.61,5.354,11.359c2.51,5.058,3.403,6.661,5.476,6.661
		c0.051,0,0.097-0.004,0.147-0.004l31.863,0.133h0.488l0.461-0.166c2.699-0.977,7.103-3.924,6.684-8.83l0.134-29.307l0.005-0.548
		l-0.208-0.507c-0.226-0.557-2.345-5.436-6.909-5.436c-0.959,0-1.908,0.227-2.843,0.673c-0.322-0.977-0.853-1.884-1.687-2.575
		c-0.709-0.778-2.768-2.694-5.688-2.694c-0.736,0-1.607,0.124-2.547,0.511c-0.641-2.34-2.026-4.385-4.662-4.993
		c-0.497-0.188-1.368-0.433-2.469-0.433c-0.591,0-1.341,0.073-2.175,0.336c0.078-4.859-0.018-6.919-0.133-7.872
		c0.17-1.732,0.4-6.822-2.234-9.812c-1.221-1.382-2.87-2.124-4.772-2.143C296.78,268.664,296.582,268.65,296.356,268.65
		L296.356,268.65L296.356,268.65L296.356,268.65z M296.356,271.414c0.258,0,0.415,0.027,0.415,0.027c0.028,0,0.055,0,0.083,0
		c5.459,0,4.303,9.25,4.303,9.25c0.4,1.156,0.004,14.192,0.004,14.192c1.607-3.28,3.672-3.952,5.091-3.952
		c0.985,0,1.663,0.322,1.663,0.322c4.127,0.742,3.031,8.204,3.031,8.204c1.777-2.773,3.523-3.611,4.983-3.611
		c2.226,0,3.787,1.948,3.787,1.948c2.151,1.524,0.939,6.661,0.939,6.661l0.317-0.368c2.037-2.732,3.769-3.645,5.174-3.645
		c2.837,0,4.349,3.718,4.349,3.718l-0.134,29.444c0.451,4.183-4.86,6.104-4.86,6.104l-31.996-0.134
		c-0.004,0-0.014,0.005-0.023,0.005c-1.326,0-15.629-32.807-15.629-32.807c-0.368-0.968-1.732-3.989,0.506-5.537
		c0.65-0.447,1.415-0.604,2.175-0.604c1.86,0,3.689,0.953,3.689,0.953l4.565,8.057c0.63,0.484,1.128,0.678,1.515,0.678
		c1.484,0,1.396-2.838,1.396-2.838l0.111-22.659C290,272.34,294.868,271.414,296.356,271.414"/>
	<path fill="#FFFFFF" d="M323.207,347.037l-25.497-0.009c-1.456,0-2.648-1.192-2.648-2.653v-3.763
		c0.005-1.456,1.198-2.649,2.653-2.649l25.497,0.01c1.456,0,2.649,1.192,2.649,2.648v3.764
		C325.861,345.845,324.662,347.037,323.207,347.037L323.207,347.037z"/>
	<polygon fill="#FFFFFF" points="328.643,381.148 292.28,381.148 292.28,346.563 328.643,346.563 328.643,381.148 	"/>
</g>
</svg>
