<?xml version="1.0" encoding="utf-8"?>
<!-- Generator: Adobe Illustrator 16.0.0, SVG Export Plug-In . SVG Version: 6.00 Build 0)  -->
<!DOCTYPE svg PUBLIC "-//W3C//DTD SVG 1.1//EN" "http://www.w3.org/Graphics/SVG/1.1/DTD/svg11.dtd">
<svg version="1.1" id="Capa_1" xmlns="http://www.w3.org/2000/svg" xmlns:xlink="http://www.w3.org/1999/xlink" x="0px" y="0px"
	 width="595.28px" height="595.28px" viewBox="0 0 595.28 595.28" enable-background="new 0 0 595.28 595.28" xml:space="preserve">
<g>
	<path fill="#C2C3C9" d="M411.432,297.846c0,62.919-51.002,113.922-113.921,113.922s-113.922-51.003-113.922-113.922
		c0-62.914,51.003-113.922,113.922-113.922S411.432,234.932,411.432,297.846L411.432,297.846z"/>
	<path fill="#FFFFFF" d="M245.604,269.756v85.882v6.417h6.418h90.976h6.418v-6.417V229.592v-6.416h-6.418h-50.417L245.604,269.756
		L245.604,269.756z M294.342,271.911l-0.097-42.319h48.753v126.046h-90.976v-83.745L294.342,271.911L294.342,271.911z"/>
	<polygon fill="#FFFFFF" points="261.188,296.395 331.543,296.395 331.543,290.779 261.188,290.779 261.188,296.395 	"/>
	<polygon fill="#FFFFFF" points="261.188,315.875 331.543,315.875 331.543,310.26 261.188,310.26 261.188,315.875 	"/>
	<polygon fill="#FFFFFF" points="261.188,335.355 331.543,335.355 331.543,329.74 261.188,329.74 261.188,335.355 	"/>
</g>
</svg>
