<?xml version="1.0" encoding="utf-8"?>
<!-- Generator: Adobe Illustrator 16.0.0, SVG Export Plug-In . SVG Version: 6.00 Build 0)  -->
<!DOCTYPE svg PUBLIC "-//W3C//DTD SVG 1.1//EN" "http://www.w3.org/Graphics/SVG/1.1/DTD/svg11.dtd">
<svg version="1.1" id="Capa_1" xmlns="http://www.w3.org/2000/svg" xmlns:xlink="http://www.w3.org/1999/xlink" x="0px" y="0px"
	 width="595.28px" height="595.28px" viewBox="0 0 595.28 595.28" enable-background="new 0 0 595.28 595.28" xml:space="preserve">
<g>
	<path fill="#C2C3C9" d="M411.667,297.783c0,62.92-51.002,113.921-113.92,113.921c-62.917,0-113.922-51.001-113.922-113.921
		s51.005-113.922,113.922-113.922C360.665,183.861,411.667,234.863,411.667,297.783L411.667,297.783z"/>
	<path fill="#FFFFFF" d="M258.404,242.889c-20.739-0.162-36.543,22.258-34.41,38.002c0.209-0.105,0.385-0.244,0.582-0.294
		c0.425-0.11,0.975-0.208,1.551-0.226c1.917-0.07,2.445,0.976,2.56,1.828c0.07,0.512-0.022,1.032-0.219,1.516
		c-1.178,2.879-3.811,8.646-5.828,8.655c-2.453,0.005-5.562-4.491-7.457-7.015c-0.902-1.203-1.211-2.548,0.027-3.512
		c0.687-0.533,1.9-0.391,3.12-0.594c0.463-2.686,0.14-4.117,0.644-7.254c1.869-12.516,8.888-20.518,19.294-26.875
		c4.229-2.579,9.153-4.357,14.361-4.44C254.552,242.652,256.479,242.814,258.404,242.889L258.404,242.889z"/>
	<path fill="#FFFFFF" d="M367.749,292.809c7.375-19.385-8.135-42.006-23.635-45.494c0.027,0.235,0.092,0.447,0.073,0.65
		c-0.046,0.438-0.147,0.985-0.327,1.533c-0.604,1.82-1.77,1.949-2.607,1.76c-0.506-0.109-0.963-0.377-1.346-0.732
		c-2.289-2.104-6.779-6.582-6.084-8.476c0.848-2.303,6.149-3.647,9.176-4.547c1.441-0.429,2.811-0.248,3.279,1.249
		c0.264,0.828-0.295,1.916-0.529,3.132c2.358,1.368,3.814,1.562,6.578,3.128c11.078,6.113,16.131,15.478,18.467,27.445
		c0.949,4.864,0.898,10.102-0.838,15.008C369.312,289.279,368.491,291.03,367.749,292.809L367.749,292.809z"/>
	<path fill="#FFFFFF" d="M312.993,233.68c0,0.29-0.01,0.581-0.023,0.871c-0.019,0.285-0.037,0.575-0.064,0.857
		c-0.047,0.428-0.105,0.847-0.18,1.266c-0.083,0.451-0.18,0.898-0.295,1.341c-0.226,0.848-0.516,1.667-0.861,2.455
		c-0.051,0.115-0.102,0.226-0.152,0.341c-0.184,0.392-0.382,0.779-0.594,1.156c-0.064,0.11-0.129,0.226-0.193,0.336
		c-0.793,1.327-1.76,2.543-2.875,3.607c-0.105,0.102-0.211,0.197-0.322,0.299c-0.184,0.166-0.373,0.332-0.566,0.493
		c-0.129,0.102-0.258,0.207-0.387,0.309c-0.286,0.222-0.58,0.438-0.881,0.646c-0.045,0.027-0.087,0.055-0.133,0.087
		c-0.396,0.268-0.807,0.517-1.23,0.751c-0.382,0.207-0.77,0.405-1.167,0.585c-0.024,0.009-0.048,0.019-0.073,0.032
		c-0.787,0.355-1.606,0.645-2.452,0.875c-0.179,0.051-0.358,0.098-0.54,0.139c-0.848,0.202-1.723,0.341-2.615,0.41
		c-0.287,0.018-0.575,0.037-0.864,0.041c-0.146,0.005-0.292,0.005-0.437,0.005c-0.146,0-0.291,0-0.436-0.005
		c-0.29-0.004-0.578-0.023-0.864-0.041c-0.894-0.069-1.768-0.208-2.616-0.41c-0.181-0.041-0.361-0.088-0.539-0.139
		c-0.846-0.23-1.666-0.52-2.454-0.875c-0.024-0.014-0.048-0.023-0.072-0.032c-0.355-0.161-0.705-0.336-1.046-0.521
		c-0.464-0.253-0.917-0.525-1.353-0.815c-0.044-0.032-0.087-0.06-0.13-0.087c-0.302-0.208-0.596-0.424-0.882-0.646
		c-0.129-0.102-0.258-0.207-0.384-0.309c-0.194-0.161-0.384-0.327-0.57-0.493c-0.206-0.188-0.408-0.382-0.604-0.575
		c-0.996-0.995-1.866-2.114-2.589-3.331c-0.066-0.11-0.13-0.226-0.194-0.336c-0.212-0.377-0.41-0.765-0.593-1.156
		c-0.052-0.115-0.103-0.226-0.153-0.341c-0.347-0.788-0.636-1.607-0.86-2.455c-0.116-0.442-0.216-0.89-0.297-1.341
		c-0.075-0.419-0.133-0.838-0.176-1.266c-0.029-0.282-0.051-0.572-0.065-0.857c-0.016-0.29-0.022-0.581-0.022-0.871
		s0.058-0.58,0.073-0.87c0.008-0.176,0.085-0.351,0.085-0.525v-0.005c0-0.11-0.031-0.221-0.021-0.326
		c0.011-0.106-0.001-0.213,0.012-0.323c0.038-0.313,0.072-0.631,0.128-0.944c0.081-0.451,0.174-0.898,0.291-1.34
		c0.224-0.848,0.51-1.668,0.856-2.455c0.025-0.061,0.049-0.115,0.074-0.172c0.025-0.055,0.05-0.115,0.077-0.17
		c0.183-0.391,0.381-0.778,0.593-1.156c0.063-0.11,0.128-0.225,0.194-0.336c0.792-1.326,1.759-2.543,2.872-3.607
		c0.105-0.102,0.212-0.197,0.321-0.299c0.186-0.166,0.376-0.332,0.57-0.493c0.126-0.101,0.255-0.207,0.384-0.309
		c0.287-0.221,0.581-0.438,0.882-0.645c0.043-0.027,0.086-0.06,0.13-0.088c0.759-0.507,1.561-0.953,2.399-1.335
		c0.024-0.01,0.048-0.02,0.072-0.033c0.788-0.354,1.607-0.645,2.454-0.875c0.178-0.051,0.358-0.097,0.539-0.139
		c0.849-0.202,1.722-0.341,2.616-0.409c0.287-0.019,0.574-0.037,0.864-0.042c0.145-0.005,0.29-0.005,0.436-0.005
		c0.146,0,0.292,0,0.437,0.005c0.289,0.005,0.578,0.023,0.864,0.042c0.892,0.068,1.767,0.207,2.615,0.409
		c0.182,0.042,0.361,0.088,0.54,0.139c0.846,0.23,1.665,0.521,2.452,0.875c0.025,0.014,0.049,0.023,0.073,0.033
		c0.841,0.382,1.642,0.828,2.397,1.335c0.046,0.028,0.088,0.061,0.133,0.088c0.301,0.207,0.595,0.424,0.881,0.645
		c0.129,0.102,0.258,0.208,0.387,0.309c0.193,0.161,0.383,0.327,0.566,0.493c0.111,0.098,0.217,0.197,0.318,0.299
		c1.114,1.061,2.086,2.275,2.879,3.607c0.064,0.111,0.129,0.226,0.193,0.336c0.212,0.378,0.41,0.766,0.594,1.156
		c0.051,0.115,0.102,0.227,0.152,0.342c0.346,0.787,0.636,1.607,0.861,2.455c0.115,0.441,0.212,0.889,0.295,1.34
		c0.074,0.42,0.133,0.839,0.18,1.268c0.014,0.133,0.023,0.262,0.032,0.396c0.014,0.157,0.022,0.309,0.032,0.461
		C312.983,233.1,312.993,233.39,312.993,233.68L312.993,233.68z"/>
	<path fill="#FFFFFF" d="M278.932,232.118c0.016,0.009,0.032,0.014,0.046,0.023c0.077,0.042,0.139,0.087,0.26,0.134
		c-0.017-0.014-0.035-0.023-0.056-0.037C279.107,232.197,279.012,232.155,278.932,232.118L278.932,232.118z M279.237,232.275
		c0.003,0,0.008,0.004,0.01,0.004c0.001,0,0.001,0,0.002,0l0,0C279.245,232.275,279.241,232.275,279.237,232.275L279.237,232.275z"
		/>
	<path fill="#FFFFFF" d="M278.932,232.118c0.08,0.037,0.176,0.079,0.25,0.12c-0.061-0.033-0.136-0.064-0.204-0.097
		C278.963,232.132,278.948,232.127,278.932,232.118L278.932,232.118z"/>
	<polygon fill="#FFFFFF" points="279.25,232.279 279.25,232.279 279.248,232.279 279.237,232.275 279.25,232.279 	"/>
	<path fill="#FFFFFF" d="M324.024,266.758v17.505c0,0.36,0.02,0.429-0.326,0.429h-55.223c-0.344,0-0.648-0.068-0.648-0.429v-17.505
		c0-0.28-0.016-0.561-0.002-0.838c0.2-4.168,1.866-7.951,4.478-10.783c0.078-0.083,0.15-0.171,0.229-0.249
		c1.304-1.358,2.825-2.487,4.504-3.321c0.102-0.051,0.202-0.102,0.305-0.146c0.463-0.222,0.937-0.415,1.422-0.586
		c0.107-0.037,0.216-0.078,0.324-0.109c0.435-0.144,0.876-0.268,1.325-0.374c0.549,0.524,1.122,1.022,1.716,1.488
		c1.519,1.192,3.176,2.183,4.934,2.962c0.331,0.147,0.664,0.285,0.999,0.414c1.294,0.498,2.622,0.875,3.973,1.124
		c1.325,0.244,2.675,0.368,4.041,0.368c1.563,0,3.098-0.146,4.602-0.465c0.188-0.037,0.374-0.11,0.561-0.11c0,0,0,0,0.001,0
		c0.279,0,0.558,0,0.835,0c0,0,0.001,0,0.002,0c0.729,0,1.451-0.571,2.162-0.857c0.281-0.11,0.563-0.358,0.844-0.483
		c1.373-0.607,2.672-1.424,3.888-2.345l0,0c0.138,0,0.271-0.124,0.405-0.221c0.801-0.595,1.566-1.208,2.299-1.912
		c6.928,1.612,12.068,7.96,12.428,15.589C324.112,266.183,324.024,266.478,324.024,266.758L324.024,266.758z"/>
	<path fill="#FFFFFF" d="M268.433,300.515c0,0.294-0.007,0.585-0.022,0.87c-0.015,0.291-0.036,0.576-0.065,0.861
		c-0.043,0.424-0.103,0.848-0.177,1.263c-0.082,0.451-0.182,0.902-0.298,1.341c-0.224,0.848-0.513,1.667-0.859,2.46
		c-0.05,0.11-0.101,0.226-0.153,0.336c-0.184,0.396-0.381,0.778-0.594,1.156c-0.063,0.114-0.128,0.226-0.194,0.336
		c-0.791,1.331-1.758,2.548-2.871,3.606c-0.106,0.102-0.214,0.203-0.322,0.3c-0.186,0.171-0.376,0.332-0.569,0.493
		c-0.127,0.105-0.255,0.207-0.385,0.309c-0.287,0.226-0.581,0.442-0.881,0.645c-0.043,0.033-0.087,0.06-0.131,0.088
		c-0.399,0.268-0.81,0.516-1.232,0.751c-0.38,0.212-0.77,0.405-1.168,0.585c-0.023,0.014-0.048,0.023-0.072,0.032
		c-0.787,0.354-1.607,0.649-2.453,0.88c-0.178,0.046-0.358,0.092-0.54,0.138c-0.849,0.198-1.722,0.337-2.616,0.405
		c-0.286,0.023-0.575,0.037-0.864,0.047c-0.145,0-0.291,0.004-0.437,0.004c-0.146,0-0.29-0.004-0.436-0.004
		c-0.29-0.01-0.578-0.023-0.864-0.047c-0.894-0.068-1.768-0.207-2.616-0.405c-0.181-0.046-0.361-0.092-0.54-0.138
		c-0.846-0.23-1.666-0.525-2.453-0.88c-0.025-0.009-0.048-0.019-0.072-0.032c-0.356-0.161-0.705-0.336-1.047-0.521
		c-0.464-0.248-0.916-0.52-1.353-0.814c-0.044-0.028-0.087-0.055-0.131-0.088c-0.301-0.202-0.595-0.419-0.882-0.645
		c-0.129-0.102-0.258-0.203-0.384-0.309c-0.193-0.161-0.383-0.322-0.569-0.493c-0.206-0.185-0.408-0.378-0.605-0.575
		c-0.995-0.996-1.866-2.115-2.589-3.331c-0.066-0.11-0.131-0.222-0.194-0.336c-0.211-0.378-0.41-0.761-0.593-1.156
		c-0.053-0.11-0.103-0.226-0.153-0.336c-0.347-0.793-0.636-1.612-0.859-2.46c-0.117-0.438-0.217-0.89-0.298-1.341
		c-0.074-0.415-0.133-0.839-0.176-1.263c-0.029-0.285-0.051-0.57-0.065-0.861c-0.015-0.285-0.022-0.576-0.022-0.87
		c0-0.29-0.005-0.581,0.011-0.866c0.008-0.18,0.023-0.354,0.023-0.529v-0.005c0-0.11,0.031-0.217,0.042-0.327
		c0.011-0.105,0.03-0.212,0.043-0.318c0.038-0.317,0.087-0.631,0.144-0.943c0.082-0.457,0.182-0.903,0.298-1.341
		c0.224-0.848,0.514-1.673,0.86-2.46c0.025-0.056,0.051-0.115,0.076-0.171c0.025-0.055,0.051-0.11,0.077-0.165
		c0.184-0.396,0.381-0.783,0.593-1.156c0.064-0.115,0.129-0.227,0.195-0.337c0.792-1.331,1.759-2.547,2.872-3.606
		c0.105-0.102,0.213-0.203,0.321-0.299c0.187-0.171,0.376-0.336,0.57-0.494c0.126-0.105,0.255-0.207,0.384-0.309
		c0.288-0.225,0.581-0.441,0.882-0.645c0.043-0.031,0.087-0.06,0.131-0.088c0.759-0.506,1.561-0.957,2.399-1.335
		c0.024-0.015,0.047-0.023,0.072-0.032c0.787-0.355,1.606-0.649,2.453-0.88c0.178-0.046,0.358-0.093,0.54-0.139
		c0.849-0.202,1.722-0.341,2.616-0.405c0.286-0.023,0.574-0.037,0.864-0.046c0.146-0.005,0.29-0.005,0.436-0.005
		c0.146,0,0.292,0,0.437,0.005c0.289,0.009,0.578,0.022,0.864,0.046c0.894,0.064,1.767,0.203,2.616,0.405
		c0.181,0.046,0.361,0.093,0.54,0.139c0.846,0.23,1.666,0.524,2.453,0.88c0.024,0.009,0.049,0.018,0.072,0.032
		c0.839,0.378,1.641,0.829,2.4,1.335c0.043,0.028,0.087,0.057,0.131,0.088c0.3,0.203,0.595,0.42,0.881,0.645
		c0.13,0.102,0.258,0.203,0.385,0.309c0.193,0.158,0.383,0.323,0.569,0.494c0.107,0.096,0.213,0.192,0.318,0.294
		c1.115,1.064,2.084,2.28,2.875,3.611c0.066,0.11,0.131,0.222,0.194,0.337c0.213,0.373,0.41,0.76,0.594,1.156
		c0.052,0.11,0.103,0.221,0.153,0.336c0.346,0.787,0.635,1.612,0.859,2.46c0.116,0.438,0.216,0.884,0.298,1.341
		c0.074,0.414,0.134,0.838,0.177,1.262c0.014,0.133,0.025,0.268,0.036,0.4c0.011,0.152,0.021,0.305,0.03,0.461
		C268.425,299.934,268.433,300.225,268.433,300.515L268.433,300.515z"/>
	<path fill="#FFFFFF" d="M234.375,298.953c0.016,0.009,0.031,0.019,0.045,0.027c0.077,0.042,0.139,0.083,0.26,0.129
		c-0.017-0.009-0.035-0.023-0.056-0.032C234.55,299.035,234.454,298.994,234.375,298.953L234.375,298.953z M234.68,299.109
		c0.004,0.005,0.007,0.005,0.01,0.01c0.001,0,0.001,0,0.002,0v-0.005C234.687,299.114,234.684,299.109,234.68,299.109
		L234.68,299.109z"/>
	<path fill="#FFFFFF" d="M234.375,298.953c0.08,0.041,0.175,0.082,0.25,0.124c-0.061-0.032-0.136-0.069-0.204-0.097
		C234.405,298.972,234.39,298.962,234.375,298.953L234.375,298.953z"/>
	<polygon fill="#FFFFFF" points="234.692,299.114 234.692,299.119 234.69,299.119 234.68,299.109 234.692,299.114 	"/>
	<path fill="#FFFFFF" d="M279.803,333.599v17.504c0,0.359-0.318,0.382-0.662,0.382h-55.224c-0.344,0-0.773-0.022-0.773-0.382
		v-17.504c0-0.282,0.047-0.563,0.061-0.839c0.199-4.169,1.896-7.951,4.509-10.788c0.077-0.083,0.165-0.167,0.244-0.249
		c1.304-1.359,2.833-2.488,4.512-3.321c0.102-0.051,0.206-0.097,0.309-0.147c0.463-0.217,0.939-0.414,1.423-0.585
		c0.108-0.036,0.217-0.073,0.326-0.11c0.435-0.143,0.877-0.268,1.326-0.373c0.549,0.529,1.122,1.027,1.716,1.492
		c1.519,1.188,3.177,2.18,4.935,2.957c0.33,0.148,0.664,0.285,0.999,0.415c1.295,0.502,2.622,0.875,3.973,1.128
		c1.325,0.244,2.675,0.364,4.041,0.364c1.563,0,3.098-0.166,4.601-0.483c0.188-0.041,0.375-0.134,0.561-0.134c0,0,0.001,0,0.001,0
		c0.28,0,0.558,0,0.835,0c0,0,0.001,0,0.001,0c0.73,0,1.452-0.553,2.163-0.833c0.283-0.111,0.563-0.374,0.842-0.498
		c1.375-0.608,2.67-1.433,3.889-2.354c0,0,0,0,0,0c0.135,0,0.27-0.102,0.402-0.199c0.802-0.594,1.567-1.197,2.3-1.901
		c6.931,1.616,12.236,7.968,12.596,15.597C279.721,333.013,279.803,333.316,279.803,333.599L279.803,333.599z"/>
	<path fill="#FFFFFF" d="M364.479,302.992c0,0.291-0.009,0.58-0.022,0.871c-0.014,0.285-0.037,0.571-0.064,0.856
		c-0.042,0.429-0.102,0.848-0.176,1.263c-0.082,0.456-0.184,0.903-0.299,1.345c-0.227,0.848-0.512,1.668-0.857,2.456
		c-0.051,0.114-0.102,0.225-0.156,0.34c-0.184,0.392-0.378,0.779-0.594,1.156c-0.061,0.111-0.125,0.222-0.193,0.332
		c-0.789,1.332-1.756,2.547-2.871,3.611c-0.105,0.102-0.211,0.198-0.322,0.3c-0.184,0.165-0.377,0.331-0.57,0.493
		c-0.125,0.101-0.254,0.207-0.383,0.309c-0.285,0.221-0.58,0.438-0.885,0.64c-0.041,0.032-0.087,0.061-0.129,0.093
		c-0.4,0.262-0.811,0.516-1.229,0.746c-0.382,0.211-0.774,0.405-1.17,0.59c-0.023,0.009-0.046,0.018-0.073,0.031
		c-0.789,0.351-1.604,0.646-2.451,0.876c-0.18,0.05-0.359,0.097-0.539,0.138c-0.848,0.203-1.723,0.342-2.616,0.41
		c-0.286,0.019-0.576,0.037-0.866,0.041c-0.143,0.005-0.291,0.005-0.434,0.005c-0.146,0-0.295,0-0.438-0.005
		c-0.289-0.004-0.58-0.022-0.865-0.041c-0.895-0.068-1.765-0.207-2.617-0.41c-0.18-0.041-0.359-0.088-0.539-0.138
		c-0.842-0.23-1.662-0.525-2.449-0.876c-0.029-0.014-0.052-0.022-0.074-0.031c-0.355-0.166-0.705-0.336-1.046-0.521
		c-0.466-0.253-0.917-0.525-1.354-0.814c-0.041-0.032-0.088-0.061-0.129-0.093c-0.305-0.202-0.594-0.419-0.885-0.64
		c-0.129-0.102-0.258-0.208-0.382-0.309c-0.194-0.162-0.382-0.328-0.571-0.493c-0.203-0.188-0.406-0.382-0.604-0.575
		c-0.995-0.996-1.865-2.115-2.589-3.336c-0.064-0.11-0.129-0.221-0.193-0.332c-0.212-0.377-0.41-0.765-0.595-1.156
		c-0.051-0.115-0.101-0.226-0.152-0.34c-0.35-0.788-0.635-1.608-0.861-2.456c-0.115-0.441-0.216-0.889-0.299-1.345
		c-0.074-0.415-0.129-0.834-0.175-1.263c-0.028-0.285-0.051-0.571-0.064-0.856c-0.015-0.291-0.022-0.58-0.022-0.871
		c0-0.294-0.121-0.58-0.106-0.87c0.009-0.175-0.093-0.35-0.093-0.529v-0.005c0-0.105,0.148-0.217,0.157-0.322
		c0.014-0.111,0.087-0.217,0.101-0.322c0.037-0.318,0.12-0.631,0.176-0.945c0.078-0.451,0.193-0.897,0.313-1.34
		c0.222-0.848,0.521-1.668,0.867-2.455c0.022-0.061,0.055-0.115,0.078-0.17c0.027-0.061,0.055-0.115,0.082-0.171
		c0.18-0.392,0.383-0.778,0.595-1.157c0.06-0.109,0.124-0.225,0.193-0.335c0.792-1.331,1.76-2.544,2.87-3.606
		c0.105-0.103,0.217-0.199,0.322-0.301c0.189-0.17,0.377-0.332,0.571-0.492c0.124-0.106,0.253-0.207,0.382-0.309
		c0.291-0.227,0.58-0.438,0.885-0.646c0.041-0.027,0.088-0.06,0.129-0.087c0.76-0.507,1.562-0.954,2.4-1.336
		c0.022-0.01,0.045-0.023,0.074-0.033c0.787-0.354,1.607-0.648,2.449-0.875c0.18-0.051,0.359-0.096,0.539-0.138
		c0.853-0.202,1.723-0.341,2.617-0.41c0.285-0.022,0.576-0.037,0.865-0.042c0.143-0.004,0.291-0.008,0.438-0.008
		c0.143,0,0.291,0.004,0.434,0.008c0.29,0.005,0.58,0.02,0.866,0.042c0.894,0.069,1.769,0.208,2.616,0.41
		c0.18,0.042,0.359,0.087,0.539,0.138c0.848,0.227,1.662,0.521,2.451,0.875c0.027,0.01,0.05,0.023,0.073,0.033
		c0.839,0.382,1.64,0.829,2.399,1.336c0.042,0.027,0.088,0.06,0.129,0.087c0.305,0.208,0.6,0.419,0.885,0.646
		c0.129,0.102,0.258,0.202,0.383,0.309c0.193,0.16,0.387,0.322,0.57,0.492c0.106,0.097,0.213,0.198,0.318,0.296
		c1.115,1.063,2.082,2.28,2.875,3.611c0.068,0.11,0.133,0.226,0.193,0.335c0.216,0.379,0.41,0.766,0.594,1.157
		c0.055,0.11,0.105,0.226,0.156,0.341c0.346,0.787,0.631,1.607,0.857,2.455c0.115,0.442,0.217,0.889,0.299,1.34
		c0.074,0.42,0.134,0.839,0.176,1.268c0.014,0.129,0.027,0.262,0.037,0.396c0.008,0.152,0.022,0.309,0.027,0.46
		C364.47,302.412,364.479,302.698,364.479,302.992L364.479,302.992z"/>
	<path fill="#FFFFFF" d="M330.419,301.432c0.019,0.004,0.032,0.014,0.046,0.022c0.078,0.042,0.143,0.088,0.263,0.129
		c-0.019-0.009-0.037-0.019-0.055-0.032C330.599,301.51,330.501,301.469,330.419,301.432L330.419,301.432z M330.728,301.583
		c0.004,0.005,0.004,0.005,0.009,0.01l0,0v-0.005C330.731,301.588,330.731,301.588,330.728,301.583L330.728,301.583z"/>
	<path fill="#FFFFFF" d="M330.419,301.432c0.082,0.037,0.18,0.078,0.254,0.119c-0.061-0.031-0.139-0.064-0.208-0.097
		C330.451,301.445,330.438,301.436,330.419,301.432L330.419,301.432z"/>
	<polygon fill="#FFFFFF" points="330.736,301.588 330.736,301.593 330.736,301.593 330.728,301.583 330.736,301.588 	"/>
	<path fill="#FFFFFF" d="M375.617,336.072v17.504c0,0.359-0.087,0.672-0.429,0.672h-55.227c-0.341,0-0.543-0.313-0.543-0.672
		v-17.504c0-0.281-0.069-0.563-0.056-0.839c0.202-4.169,1.843-7.951,4.454-10.784c0.078-0.087,0.135-0.17,0.217-0.248
		c1.304-1.359,2.814-2.488,4.496-3.322c0.102-0.05,0.197-0.101,0.299-0.151c0.466-0.216,0.939-0.41,1.424-0.581
		c0.105-0.041,0.212-0.078,0.322-0.11c0.434-0.147,0.875-0.271,1.326-0.372c0.549,0.524,1.12,1.021,1.715,1.487
		c1.52,1.192,3.178,2.184,4.934,2.962c0.331,0.143,0.662,0.281,0.999,0.41c1.294,0.502,2.621,0.88,3.971,1.129
		c1.327,0.244,2.677,0.368,4.044,0.368c1.563,0,3.096-0.253,4.598-0.571c0.189-0.041,0.377-0.221,0.563-0.221l0,0
		c0.281,0,0.562,0,0.838,0l0,0c0.732,0,1.451-0.466,2.165-0.746c0.28-0.111,0.562-0.189,0.843-0.309
		c1.373-0.609,2.667-1.249,3.889-2.17l0,0c0.133,0,0.267-0.244,0.4-0.346c0.801-0.594,1.566-1.267,2.299-1.972
		c6.932,1.616,12.119,7.933,12.479,15.561C375.649,335.523,375.617,335.791,375.617,336.072L375.617,336.072z"/>
</g>
</svg>
