<?xml version="1.0" encoding="utf-8"?>
<!-- Generator: Adobe Illustrator 16.0.0, SVG Export Plug-In . SVG Version: 6.00 Build 0)  -->
<!DOCTYPE svg PUBLIC "-//W3C//DTD SVG 1.1//EN" "http://www.w3.org/Graphics/SVG/1.1/DTD/svg11.dtd">
<svg version="1.1" id="Capa_1" xmlns="http://www.w3.org/2000/svg" xmlns:xlink="http://www.w3.org/1999/xlink" x="0px" y="0px"
	 width="595.28px" height="595.28px" viewBox="0 0 595.28 595.28" enable-background="new 0 0 595.28 595.28" xml:space="preserve">
<g>
	<path fill="#9A999E" d="M412.16,297.16c0,62.919-51.008,113.921-113.922,113.921c-62.919,0-113.921-51.002-113.921-113.921
		s51.002-113.922,113.921-113.922C361.152,183.238,412.16,234.241,412.16,297.16L412.16,297.16z"/>
	<polygon fill="#FFFFFF" points="292.384,281.286 270.738,259.641 279.56,250.819 227.737,227.455 250.985,279.393 260.41,269.968 
		282.056,291.614 292.384,281.286 	"/>
	<polygon fill="#FFFFFF" points="281.687,303.134 260.042,324.784 251.22,315.958 227.861,367.786 279.794,344.537 270.374,335.112 
		292.019,313.466 281.687,303.134 	"/>
	<polygon fill="#FFFFFF" points="303.775,312.453 325.42,334.099 316.6,342.92 368.422,366.279 345.174,314.342 335.754,323.767 
		314.107,302.121 303.775,312.453 	"/>
	<polygon fill="#FFFFFF" points="314.01,291.982 335.656,270.337 344.478,279.158 367.841,227.336 315.903,250.579 325.328,260.005 
		303.678,281.65 314.01,291.982 	"/>
</g>
</svg>
