<?xml version="1.0" encoding="utf-8"?>
<!-- Generator: Adobe Illustrator 16.0.0, SVG Export Plug-In . SVG Version: 6.00 Build 0)  -->
<!DOCTYPE svg PUBLIC "-//W3C//DTD SVG 1.1//EN" "http://www.w3.org/Graphics/SVG/1.1/DTD/svg11.dtd">
<svg version="1.1" id="Capa_1" xmlns="http://www.w3.org/2000/svg" xmlns:xlink="http://www.w3.org/1999/xlink" x="0px" y="0px"
	 width="595.28px" height="595.28px" viewBox="0 0 595.28 595.28" enable-background="new 0 0 595.28 595.28" xml:space="preserve">
<g>
	<path fill="#444242" d="M411.812,297.479c0,62.915-51.008,113.922-113.922,113.922c-62.92,0-113.922-51.007-113.922-113.922
		c0-62.919,51.002-113.926,113.922-113.926C360.804,183.554,411.812,234.561,411.812,297.479L411.812,297.479z"/>
	<path fill="#FFFFFF" d="M315.854,226.25c0,0.291-0.01,0.581-0.022,0.871c-0.019,0.285-0.037,0.576-0.065,0.856
		c-0.045,0.429-0.105,0.848-0.18,1.268c-0.082,0.451-0.179,0.897-0.299,1.34c-0.221,0.848-0.512,1.668-0.857,2.455
		c-0.05,0.115-0.101,0.226-0.151,0.341c-0.185,0.392-0.383,0.779-0.595,1.156c-0.064,0.11-0.129,0.226-0.193,0.337
		c-0.792,1.326-1.76,2.543-2.874,3.606c-0.106,0.102-0.212,0.198-0.323,0.3c-0.184,0.165-0.372,0.331-0.565,0.492
		c-0.13,0.102-0.259,0.208-0.388,0.309c-0.285,0.222-0.58,0.438-0.879,0.646c-0.047,0.027-0.088,0.06-0.135,0.088
		c-0.396,0.267-0.806,0.516-1.229,0.75c-0.382,0.208-0.769,0.406-1.169,0.585c-0.023,0.01-0.047,0.019-0.07,0.032
		c-0.787,0.355-1.607,0.645-2.455,0.875c-0.176,0.051-0.359,0.098-0.539,0.139c-0.848,0.203-1.723,0.341-2.615,0.41
		c-0.287,0.019-0.572,0.037-0.863,0.041c-0.146,0.005-0.289,0.005-0.437,0.005s-0.29,0-0.438-0.005
		c-0.289-0.004-0.576-0.022-0.861-0.041c-0.893-0.069-1.768-0.207-2.615-0.41c-0.186-0.041-0.365-0.088-0.539-0.139
		c-0.848-0.23-1.668-0.52-2.455-0.875c-0.023-0.014-0.047-0.022-0.074-0.032c-0.354-0.161-0.705-0.336-1.045-0.521
		c-0.461-0.253-0.918-0.524-1.35-0.814c-0.047-0.028-0.089-0.061-0.135-0.088c-0.299-0.207-0.595-0.424-0.88-0.646
		c-0.128-0.101-0.258-0.207-0.387-0.309c-0.193-0.161-0.382-0.327-0.567-0.492c-0.206-0.189-0.408-0.383-0.607-0.576
		c-0.994-0.995-1.865-2.114-2.588-3.33c-0.065-0.111-0.129-0.227-0.194-0.337c-0.212-0.377-0.41-0.765-0.595-1.156
		c-0.051-0.115-0.101-0.226-0.152-0.341c-0.345-0.787-0.635-1.607-0.86-2.455c-0.115-0.442-0.217-0.889-0.296-1.34
		c-0.073-0.42-0.133-0.839-0.174-1.268c-0.032-0.28-0.056-0.571-0.069-0.856c-0.014-0.29-0.019-0.58-0.019-0.871
		c0-0.289,0.056-0.58,0.068-0.87c0.011-0.175,0.089-0.351,0.089-0.525v-0.004c0-0.111-0.032-0.222-0.023-0.327
		c0.014-0.106,0-0.212,0.014-0.323c0.036-0.313,0.073-0.631,0.13-0.944c0.078-0.451,0.174-0.897,0.289-1.34
		c0.222-0.848,0.507-1.668,0.857-2.455c0.022-0.061,0.046-0.115,0.074-0.171c0.021-0.056,0.05-0.115,0.072-0.171
		c0.185-0.391,0.383-0.777,0.595-1.155c0.065-0.111,0.129-0.227,0.194-0.337c0.792-1.326,1.76-2.543,2.874-3.606
		c0.106-0.102,0.212-0.198,0.321-0.3c0.186-0.166,0.374-0.331,0.567-0.493c0.129-0.101,0.259-0.206,0.387-0.309
		c0.285-0.221,0.581-0.437,0.88-0.645c0.046-0.027,0.088-0.06,0.135-0.087c0.754-0.507,1.557-0.954,2.395-1.337
		c0.027-0.009,0.051-0.018,0.074-0.031c0.787-0.355,1.607-0.646,2.455-0.876c0.174-0.051,0.354-0.097,0.539-0.138
		c0.848-0.202,1.723-0.341,2.615-0.41c0.285-0.019,0.572-0.037,0.861-0.041c0.148-0.005,0.291-0.005,0.438-0.005s0.29,0,0.437,0.005
		c0.291,0.004,0.576,0.022,0.863,0.041c0.893,0.069,1.768,0.208,2.615,0.41c0.18,0.041,0.363,0.087,0.539,0.138
		c0.848,0.23,1.668,0.521,2.455,0.876c0.023,0.014,0.047,0.022,0.07,0.031c0.842,0.383,1.645,0.83,2.398,1.337
		c0.047,0.027,0.088,0.06,0.135,0.087c0.299,0.208,0.594,0.424,0.879,0.645c0.129,0.103,0.258,0.208,0.388,0.309
		c0.193,0.162,0.382,0.327,0.565,0.493c0.111,0.097,0.217,0.198,0.318,0.3c1.115,1.06,2.087,2.275,2.879,3.606
		c0.064,0.11,0.129,0.226,0.193,0.337c0.212,0.378,0.41,0.765,0.595,1.155c0.051,0.115,0.102,0.227,0.151,0.342
		c0.346,0.787,0.637,1.607,0.857,2.455c0.12,0.442,0.217,0.889,0.299,1.34c0.074,0.42,0.135,0.839,0.18,1.268
		c0.014,0.133,0.023,0.262,0.033,0.396c0.014,0.156,0.022,0.309,0.032,0.46C315.845,225.67,315.854,225.961,315.854,226.25
		L315.854,226.25z"/>
	<path fill="#FFFFFF" d="M281.795,224.689c0.013,0.009,0.032,0.014,0.046,0.022c0.078,0.042,0.139,0.087,0.258,0.134
		c-0.019-0.014-0.032-0.023-0.056-0.037C281.97,224.768,281.873,224.726,281.795,224.689L281.795,224.689z M282.099,224.846
		c0.005,0,0.01,0.005,0.01,0.005c0.004,0,0.004,0,0.004,0l0,0C282.108,224.846,282.104,224.846,282.099,224.846L282.099,224.846z"/>
	<path fill="#FFFFFF" d="M281.795,224.689c0.078,0.036,0.175,0.078,0.248,0.119c-0.06-0.032-0.133-0.064-0.202-0.097
		C281.827,224.703,281.808,224.698,281.795,224.689L281.795,224.689z"/>
	<polygon fill="#FFFFFF" points="282.112,224.851 282.112,224.851 282.108,224.851 282.099,224.846 282.112,224.851 	"/>
	<path fill="#FFFFFF" d="M326.888,259.329v17.505c0,0.359,0.018,0.428-0.328,0.428h-55.223c-0.345,0-0.648-0.068-0.648-0.428
		v-17.505c0-0.28-0.014-0.562,0-0.838c0.198-4.169,1.861-7.951,4.473-10.784c0.078-0.083,0.152-0.166,0.23-0.248
		c1.304-1.359,2.824-2.488,4.506-3.321c0.101-0.051,0.202-0.102,0.303-0.147c0.465-0.222,0.94-0.415,1.424-0.586
		c0.105-0.036,0.217-0.078,0.322-0.11c0.438-0.143,0.876-0.267,1.326-0.373c0.549,0.525,1.121,1.022,1.715,1.488
		c1.52,1.192,3.178,2.183,4.934,2.962c0.331,0.147,0.668,0.285,1,0.414c1.293,0.498,2.62,0.875,3.975,1.124
		c1.322,0.244,2.672,0.368,4.04,0.368c1.562,0,3.095-0.146,4.601-0.465c0.189-0.037,0.374-0.11,0.559-0.11h0.004
		c0.276,0,0.559,0,0.834,0l0,0c0.732,0,1.456-0.571,2.165-0.856c0.28-0.111,0.563-0.359,0.843-0.484
		c1.373-0.607,2.672-1.423,3.888-2.344l0,0c0.139,0,0.272-0.125,0.405-0.222c0.803-0.595,1.566-1.207,2.299-1.911
		c6.928,1.612,12.068,7.959,12.428,15.588C326.975,258.753,326.888,259.049,326.888,259.329L326.888,259.329z"/>
	<path fill="#FFFFFF" d="M267.611,305.983c0,0.294-0.009,0.585-0.022,0.87c-0.02,0.29-0.037,0.576-0.064,0.862
		c-0.047,0.423-0.107,0.847-0.18,1.262c-0.079,0.451-0.18,0.902-0.295,1.341c-0.227,0.847-0.517,1.667-0.862,2.459
		c-0.05,0.111-0.101,0.227-0.151,0.336c-0.184,0.396-0.383,0.779-0.594,1.157c-0.065,0.115-0.129,0.226-0.193,0.336
		c-0.793,1.331-1.76,2.547-2.875,3.606c-0.106,0.102-0.211,0.203-0.322,0.3c-0.185,0.171-0.373,0.331-0.566,0.493
		c-0.13,0.105-0.259,0.207-0.387,0.309c-0.287,0.226-0.58,0.442-0.881,0.645c-0.045,0.027-0.087,0.06-0.134,0.087
		c-0.396,0.269-0.806,0.517-1.229,0.752c-0.383,0.212-0.77,0.405-1.165,0.585c-0.028,0.014-0.051,0.022-0.074,0.032
		c-0.788,0.354-1.607,0.649-2.455,0.88c-0.175,0.046-0.358,0.092-0.539,0.138c-0.847,0.198-1.723,0.337-2.616,0.405
		c-0.286,0.023-0.571,0.037-0.861,0.047c-0.146,0-0.29,0.004-0.438,0.004c-0.148,0-0.291-0.004-0.438-0.004
		c-0.291-0.01-0.576-0.023-0.861-0.047c-0.895-0.068-1.77-0.207-2.617-0.405c-0.18-0.046-0.363-0.092-0.539-0.138
		c-0.848-0.23-1.666-0.525-2.455-0.88c-0.023-0.01-0.045-0.019-0.068-0.032c-0.359-0.162-0.705-0.337-1.051-0.521
		c-0.461-0.248-0.916-0.52-1.35-0.815c-0.045-0.027-0.087-0.06-0.134-0.087c-0.299-0.202-0.594-0.419-0.88-0.645
		c-0.129-0.102-0.258-0.203-0.387-0.309c-0.193-0.162-0.383-0.322-0.566-0.493c-0.207-0.185-0.41-0.378-0.607-0.576
		c-0.996-0.995-1.866-2.114-2.59-3.33c-0.064-0.11-0.129-0.221-0.193-0.336c-0.211-0.378-0.41-0.761-0.594-1.157
		c-0.051-0.109-0.102-0.225-0.152-0.336c-0.346-0.792-0.636-1.612-0.861-2.459c-0.115-0.438-0.217-0.89-0.295-1.341
		c-0.073-0.415-0.134-0.839-0.175-1.262c-0.032-0.286-0.051-0.572-0.069-0.862c-0.014-0.285-0.018-0.576-0.018-0.87
		c0-0.29-0.005-0.581,0.008-0.866c0.01-0.18,0.023-0.354,0.023-0.53v-0.004c0-0.11,0.033-0.217,0.042-0.327
		c0.009-0.105,0.026-0.212,0.042-0.318c0.041-0.317,0.087-0.631,0.143-0.944c0.082-0.455,0.184-0.902,0.299-1.34
		c0.226-0.848,0.516-1.673,0.861-2.46c0.023-0.056,0.051-0.115,0.074-0.171c0.027-0.055,0.055-0.11,0.078-0.165
		c0.184-0.396,0.383-0.783,0.594-1.156c0.064-0.115,0.129-0.226,0.193-0.337c0.793-1.331,1.76-2.547,2.875-3.606
		c0.105-0.102,0.212-0.203,0.322-0.3c0.184-0.171,0.373-0.336,0.566-0.492c0.129-0.106,0.258-0.208,0.387-0.309
		c0.286-0.227,0.581-0.442,0.88-0.646c0.047-0.032,0.089-0.06,0.134-0.087c0.755-0.507,1.557-0.959,2.4-1.336
		c0.023-0.015,0.045-0.023,0.068-0.032c0.789-0.355,1.607-0.649,2.455-0.881c0.176-0.045,0.359-0.092,0.539-0.138
		c0.848-0.203,1.723-0.341,2.617-0.405c0.285-0.023,0.57-0.037,0.861-0.047c0.146-0.004,0.289-0.004,0.438-0.004
		c0.147,0,0.291,0,0.438,0.004c0.29,0.01,0.575,0.023,0.861,0.047c0.894,0.064,1.77,0.202,2.616,0.405
		c0.181,0.046,0.364,0.093,0.539,0.138c0.848,0.231,1.667,0.525,2.455,0.881c0.023,0.009,0.046,0.018,0.074,0.032
		c0.839,0.377,1.64,0.829,2.395,1.336c0.047,0.027,0.089,0.055,0.134,0.087c0.301,0.203,0.594,0.419,0.881,0.646
		c0.128,0.101,0.257,0.202,0.387,0.309c0.193,0.156,0.382,0.321,0.566,0.492c0.111,0.097,0.216,0.194,0.318,0.295
		c1.114,1.064,2.086,2.28,2.879,3.611c0.064,0.111,0.128,0.222,0.193,0.337c0.211,0.373,0.41,0.76,0.594,1.156
		c0.051,0.11,0.102,0.221,0.151,0.336c0.346,0.787,0.636,1.612,0.862,2.46c0.115,0.438,0.216,0.885,0.295,1.34
		c0.072,0.415,0.133,0.839,0.18,1.263c0.013,0.134,0.023,0.268,0.031,0.4c0.014,0.152,0.023,0.305,0.033,0.461
		C267.603,305.402,267.611,305.693,267.611,305.983L267.611,305.983z"/>
	<path fill="#FFFFFF" d="M233.552,304.422c0.014,0.009,0.032,0.018,0.045,0.027c0.079,0.041,0.139,0.083,0.259,0.129
		c-0.014-0.01-0.032-0.022-0.055-0.032C233.727,304.505,233.63,304.463,233.552,304.422L233.552,304.422z M233.855,304.578
		c0.005,0.005,0.009,0.005,0.009,0.009c0.006,0,0.006,0,0.006,0v-0.004C233.864,304.583,233.86,304.578,233.855,304.578
		L233.855,304.578z"/>
	<path fill="#FFFFFF" d="M233.552,304.422c0.078,0.041,0.175,0.083,0.249,0.124c-0.061-0.032-0.134-0.069-0.204-0.097
		C233.584,304.439,233.565,304.431,233.552,304.422L233.552,304.422z"/>
	<path fill="#FFFFFF" d="M233.87,304.583v0.004c0,0,0,0-0.006,0c0-0.004-0.004-0.004-0.009-0.009
		C233.86,304.578,233.864,304.583,233.87,304.583L233.87,304.583z"/>
	<path fill="#FFFFFF" d="M278.98,339.066v17.504c0,0.355-0.318,0.383-0.664,0.383h-55.222c-0.346,0-0.773-0.027-0.773-0.383v-17.504
		c0-0.281,0.046-0.563,0.06-0.838c0.198-4.169,1.898-7.951,4.511-10.789c0.078-0.082,0.165-0.166,0.243-0.248
		c1.304-1.359,2.833-2.488,4.511-3.321c0.1-0.051,0.207-0.097,0.309-0.147c0.465-0.217,0.938-0.414,1.423-0.585
		c0.109-0.037,0.216-0.074,0.327-0.11c0.432-0.143,0.875-0.268,1.326-0.374c0.548,0.53,1.119,1.027,1.713,1.493
		c1.521,1.188,3.179,2.179,4.934,2.957c0.332,0.147,0.668,0.285,1,0.415c1.295,0.502,2.621,0.875,3.977,1.128
		c1.321,0.244,2.67,0.364,4.039,0.364c1.561,0,3.1-0.166,4.602-0.484c0.188-0.041,0.373-0.133,0.557-0.133h0.005
		c0.28,0,0.558,0,0.834,0c0,0,0,0,0.005,0c0.728,0,1.451-0.553,2.16-0.834c0.281-0.11,0.563-0.373,0.843-0.497
		c1.373-0.608,2.673-1.433,3.889-2.354l0,0c0.138,0,0.271-0.102,0.405-0.198c0.801-0.594,1.566-1.197,2.299-1.902
		c6.928,1.617,12.234,7.969,12.594,15.598C278.897,338.481,278.98,338.785,278.98,339.066L278.98,339.066z"/>
	<path fill="#FFFFFF" d="M362.733,305.697c0,0.291-0.009,0.58-0.021,0.871c-0.014,0.285-0.037,0.571-0.065,0.856
		c-0.042,0.429-0.101,0.848-0.175,1.263c-0.084,0.456-0.184,0.902-0.299,1.345c-0.227,0.848-0.512,1.668-0.857,2.455
		c-0.051,0.115-0.102,0.226-0.157,0.341c-0.183,0.392-0.377,0.778-0.594,1.156c-0.06,0.111-0.124,0.221-0.193,0.332
		c-0.788,1.331-1.755,2.547-2.87,3.611c-0.105,0.102-0.211,0.198-0.322,0.299c-0.184,0.166-0.377,0.332-0.57,0.493
		c-0.125,0.102-0.254,0.208-0.383,0.309c-0.286,0.222-0.58,0.438-0.885,0.641c-0.041,0.032-0.087,0.06-0.129,0.092
		c-0.4,0.263-0.811,0.517-1.229,0.747c-0.382,0.211-0.774,0.404-1.171,0.589c-0.021,0.01-0.045,0.019-0.073,0.032
		c-0.787,0.35-1.604,0.645-2.45,0.875c-0.18,0.051-0.359,0.098-0.539,0.139c-0.853,0.202-1.724,0.341-2.617,0.41
		c-0.285,0.019-0.575,0.036-0.866,0.041c-0.142,0.005-0.29,0.005-0.433,0.005c-0.146,0-0.294,0-0.438-0.005
		c-0.29-0.005-0.58-0.022-0.866-0.041c-0.894-0.069-1.763-0.208-2.616-0.41c-0.18-0.041-0.359-0.088-0.539-0.139
		c-0.843-0.23-1.662-0.525-2.451-0.875c-0.027-0.014-0.05-0.022-0.073-0.032c-0.354-0.165-0.704-0.336-1.046-0.521
		c-0.465-0.253-0.916-0.525-1.354-0.815c-0.041-0.032-0.088-0.06-0.129-0.092c-0.304-0.202-0.595-0.419-0.885-0.641
		c-0.129-0.101-0.258-0.207-0.383-0.309c-0.193-0.161-0.383-0.327-0.57-0.493c-0.203-0.188-0.406-0.382-0.604-0.575
		c-0.995-0.995-1.866-2.114-2.59-3.335c-0.063-0.111-0.129-0.221-0.193-0.332c-0.211-0.378-0.409-0.765-0.594-1.156
		c-0.051-0.115-0.102-0.226-0.152-0.341c-0.35-0.787-0.636-1.607-0.861-2.455c-0.115-0.442-0.216-0.889-0.299-1.345
		c-0.074-0.415-0.129-0.834-0.176-1.263c-0.027-0.285-0.05-0.571-0.063-0.856c-0.015-0.291-0.023-0.58-0.023-0.871
		c0-0.295-0.12-0.58-0.106-0.87c0.01-0.175-0.092-0.351-0.092-0.53v-0.004c0-0.106,0.146-0.217,0.157-0.323
		c0.013-0.11,0.087-0.216,0.101-0.322c0.037-0.317,0.116-0.631,0.176-0.944c0.078-0.451,0.193-0.898,0.313-1.34
		c0.222-0.848,0.521-1.668,0.867-2.456c0.021-0.06,0.055-0.115,0.078-0.17c0.026-0.06,0.055-0.115,0.082-0.171
		c0.18-0.392,0.383-0.778,0.594-1.156c0.061-0.11,0.13-0.226,0.193-0.336c0.793-1.331,1.76-2.543,2.871-3.606
		c0.105-0.102,0.217-0.198,0.322-0.3c0.188-0.171,0.377-0.332,0.57-0.492c0.125-0.106,0.254-0.208,0.383-0.309
		c0.29-0.227,0.581-0.438,0.885-0.646c0.041-0.028,0.088-0.06,0.129-0.087c0.76-0.508,1.561-0.954,2.399-1.336
		c0.023-0.01,0.046-0.023,0.073-0.033c0.789-0.354,1.608-0.649,2.451-0.875c0.18-0.051,0.359-0.097,0.539-0.139
		c0.854-0.202,1.723-0.34,2.616-0.409c0.286-0.023,0.576-0.037,0.866-0.042c0.144-0.005,0.291-0.009,0.438-0.009
		c0.143,0,0.291,0.004,0.433,0.009c0.291,0.005,0.581,0.019,0.866,0.042c0.894,0.069,1.765,0.207,2.617,0.409
		c0.18,0.042,0.359,0.088,0.539,0.139c0.847,0.226,1.663,0.521,2.45,0.875c0.028,0.01,0.052,0.023,0.073,0.033
		c0.839,0.382,1.641,0.828,2.4,1.336c0.042,0.027,0.088,0.059,0.129,0.087c0.305,0.207,0.599,0.419,0.885,0.646
		c0.129,0.101,0.258,0.202,0.383,0.309c0.193,0.16,0.387,0.321,0.57,0.492c0.106,0.097,0.212,0.198,0.318,0.295
		c1.114,1.064,2.082,2.28,2.874,3.611c0.069,0.11,0.134,0.226,0.193,0.336c0.217,0.378,0.411,0.765,0.594,1.156
		c0.056,0.111,0.106,0.226,0.157,0.341c0.346,0.788,0.631,1.608,0.857,2.456c0.115,0.441,0.215,0.889,0.299,1.34
		c0.074,0.42,0.133,0.839,0.175,1.267c0.015,0.13,0.028,0.263,0.037,0.396c0.009,0.152,0.023,0.309,0.028,0.461
		C362.725,305.117,362.733,305.402,362.733,305.697L362.733,305.697z"/>
	<path fill="#FFFFFF" d="M328.675,304.136c0.018,0.005,0.031,0.015,0.045,0.023c0.078,0.041,0.144,0.088,0.264,0.129
		c-0.019-0.01-0.037-0.019-0.056-0.032C328.854,304.215,328.758,304.173,328.675,304.136L328.675,304.136z M328.983,304.288
		c0.004,0.005,0.004,0.005,0.008,0.009l0,0v-0.004C328.987,304.293,328.987,304.293,328.983,304.288L328.983,304.288z"/>
	<path fill="#FFFFFF" d="M328.675,304.136c0.083,0.037,0.18,0.079,0.253,0.12c-0.064-0.032-0.139-0.064-0.208-0.097
		C328.706,304.15,328.692,304.141,328.675,304.136L328.675,304.136z"/>
	<polygon fill="#FFFFFF" points="328.991,304.293 328.991,304.297 328.991,304.297 328.983,304.288 328.991,304.293 	"/>
	<path fill="#FFFFFF" d="M373.873,338.776v17.505c0,0.358-0.089,0.672-0.429,0.672h-55.227c-0.341,0-0.543-0.313-0.543-0.672
		v-17.505c0-0.281-0.069-0.563-0.057-0.839c0.203-4.168,1.844-7.95,4.455-10.783c0.078-0.087,0.134-0.171,0.217-0.249
		c1.304-1.358,2.814-2.487,4.496-3.321c0.102-0.051,0.197-0.101,0.299-0.151c0.465-0.217,0.936-0.41,1.424-0.581
		c0.105-0.041,0.211-0.078,0.322-0.11c0.434-0.147,0.875-0.271,1.326-0.373c0.549,0.525,1.119,1.022,1.715,1.487
		c1.52,1.193,3.178,2.184,4.933,2.963c0.332,0.143,0.663,0.28,0.999,0.41c1.295,0.502,2.621,0.879,3.971,1.128
		c1.327,0.244,2.677,0.368,4.045,0.368c1.563,0,3.096-0.253,4.598-0.57c0.189-0.042,0.377-0.222,0.562-0.222l0,0
		c0.281,0,0.562,0,0.839,0l0,0c0.732,0,1.451-0.465,2.165-0.746c0.28-0.11,0.562-0.188,0.843-0.309
		c1.372-0.608,2.667-1.248,3.888-2.17l0,0c0.134,0,0.268-0.244,0.4-0.346c0.802-0.594,1.566-1.267,2.299-1.971
		c6.933,1.616,12.12,7.932,12.479,15.56C373.904,338.229,373.873,338.495,373.873,338.776L373.873,338.776z"/>
	<path fill="#FFFFFF" d="M298.571,281.439h-0.981c-1.557,0-2.833,1.276-2.833,2.834v23.423c0,1.558,1.276,2.833,2.833,2.833h0.981
		c1.558,0,2.833-1.275,2.833-2.833v-23.423C301.404,282.716,300.129,281.439,298.571,281.439L298.571,281.439z"/>
	<path fill="#FFFFFF" d="M295.743,304.707l-0.53,0.663c-0.994,1.249-0.782,3.082,0.462,4.073l18.193,14.491
		c1.25,0.995,3.083,0.787,4.078-0.461l0.524-0.663c0.995-1.249,0.788-3.082-0.46-4.077l-18.19-14.486
		C298.571,303.251,296.733,303.459,295.743,304.707L295.743,304.707z"/>
	<path fill="#FFFFFF" d="M277.009,323.474l-0.529-0.663c-0.996-1.249-0.788-3.082,0.459-4.077l18.197-14.486
		c1.248-0.996,3.081-0.788,4.076,0.46l0.524,0.663c0.995,1.249,0.788,3.082-0.46,4.073l-18.195,14.491
		C279.833,324.93,277.999,324.722,277.009,323.474L277.009,323.474z"/>
</g>
</svg>
