<?xml version="1.0" encoding="utf-8"?>
<!-- Generator: Adobe Illustrator 16.0.0, SVG Export Plug-In . SVG Version: 6.00 Build 0)  -->
<!DOCTYPE svg PUBLIC "-//W3C//DTD SVG 1.1//EN" "http://www.w3.org/Graphics/SVG/1.1/DTD/svg11.dtd">
<svg version="1.1" id="Capa_1" xmlns="http://www.w3.org/2000/svg" xmlns:xlink="http://www.w3.org/1999/xlink" x="0px" y="0px"
	 width="595.28px" height="595.28px" viewBox="0 0 595.28 595.28" enable-background="new 0 0 595.28 595.28" xml:space="preserve">
<g>
	<path fill="#727176" d="M411.512,297.214c0,62.919-51.007,113.922-113.922,113.922c-62.919,0-113.921-51.003-113.921-113.922
		c0-62.914,51.002-113.922,113.921-113.922C360.505,183.292,411.512,234.3,411.512,297.214L411.512,297.214z"/>
	<path fill="#FFFFFF" d="M314.597,247.677c0,14.625-11.861,26.486-26.491,26.486s-26.487-11.861-26.487-26.486
		c0-14.63,11.857-26.492,26.487-26.492S314.597,233.047,314.597,247.677L314.597,247.677z"/>
	<path fill="#FFFFFF" d="M287.401,336.728l37.505,0.157c2.787,0.014,5.51-1.027,7.439-3.036c1.29-1.336,2.275-3.128,2.027-5.408
		l0.193-40.78c0,0-4.694-11.517-13.188-0.097l-0.447,0.507c0,0,1.677-7.117-1.299-9.227c0,0-5.924-7.398-12.151,2.304
		c0,0,1.521-10.333-4.196-11.364c0,0-5.584-2.668-9.352,5.024c0,0,0.553-18.057-0.004-19.65c0,0,1.616-12.949-6.08-12.814
		c0,0-9.813-1.77-6.869,18.536l-0.152,31.388c0,0,0.193,6.242-4.03,2.984l-6.325-11.156c0,0-5.021-2.626-8.121-0.483
		c-3.104,2.142-1.211,6.329-0.704,7.67c0,0,13.606,30.489,19.338,41.526C282.228,335.208,284.697,336.718,287.401,336.728
		L287.401,336.728z"/>
	<path fill="#727176" d="M287.276,238.478L287.276,238.478c-1.599,0-4.647,0.433-7.172,3.349
		c-3.285,3.796-4.252,10.116-2.957,19.314l-0.129,26.74l-3.216-5.675l-0.554-0.98l-1.004-0.525
		c-0.346-0.181-3.463-1.756-6.886-1.756c-1.981,0-3.727,0.512-5.187,1.516c-2.359,1.631-3.557,4.205-3.372,7.246
		c0.124,2.004,0.806,3.754,1.174,4.694l0.093,0.235l0.032,0.087l0.037,0.087c0.05,0.111,5.024,11.517,10.161,22.779
		c3.026,6.633,5.519,11.926,7.412,15.731c3.478,7.006,4.717,9.226,7.586,9.226c0.065,0,0.135-0.004,0.203-0.004l44.13,0.185
		l0.682,0.005l0.636-0.235c3.74-1.351,9.84-5.436,9.258-12.226l0.189-40.592v-0.76l-0.285-0.705
		c-0.313-0.77-3.248-7.531-9.567-7.531c-1.327,0-2.644,0.313-3.938,0.935c-0.447-1.354-1.184-2.611-2.336-3.569
		c-0.986-1.074-3.832-3.732-7.881-3.732c-1.019,0-2.226,0.176-3.529,0.71c-0.889-3.242-2.805-6.076-6.453-6.919
		c-0.691-0.258-1.893-0.599-3.422-0.599c-0.816,0-1.857,0.102-3.01,0.466c0.107-6.73-0.026-9.582-0.184-10.904
		c0.23-2.399,0.553-9.452-3.1-13.589c-1.69-1.911-3.976-2.938-6.61-2.966C287.861,238.491,287.595,238.478,287.276,238.478
		L287.276,238.478L287.276,238.478L287.276,238.478z M287.276,242.306c0.355,0,0.572,0.037,0.572,0.037c0.041,0,0.078,0,0.119,0
		c7.559,0,5.961,12.814,5.961,12.814c0.557,1.594,0.004,19.65,0.004,19.65c2.225-4.541,5.08-5.472,7.049-5.472
		c1.367,0,2.303,0.447,2.303,0.447c5.717,1.031,4.196,11.364,4.196,11.364c2.464-3.843,4.882-5.004,6.905-5.004
		c3.081,0,5.246,2.7,5.246,2.7c2.976,2.109,1.299,9.227,1.299,9.227l0.447-0.507c2.814-3.787,5.215-5.054,7.163-5.054
		c3.925,0,6.025,5.15,6.025,5.15l-0.193,40.78c0.626,5.8-6.726,8.458-6.726,8.458l-44.318-0.189
		c-0.01,0.005-0.023,0.009-0.033,0.009c-1.838,0-21.649-45.437-21.649-45.437c-0.507-1.341-2.399-5.528,0.704-7.67
		c0.898-0.618,1.958-0.839,3.009-0.839c2.579,0,5.112,1.322,5.112,1.322l6.325,11.156c0.874,0.674,1.557,0.94,2.096,0.94
		c2.06,0,1.935-3.925,1.935-3.925l0.152-31.388C278.469,243.586,285.218,242.306,287.276,242.306"/>
	<path fill="#FFFFFF" d="M324.47,347.046l-35.313-0.009c-2.019,0-3.672-1.653-3.672-3.676l0.005-5.21
		c0-2.022,1.648-3.672,3.672-3.672l35.313,0.01c2.018,0.004,3.671,1.653,3.666,3.676v5.21
		C328.14,345.397,326.486,347.046,324.47,347.046L324.47,347.046z"/>
	<path fill="#FFFFFF" d="M328.288,370.345h-42.951c-2.045,0-3.707-1.662-3.707-3.707v-16.537c0-2.051,1.662-3.713,3.707-3.713
		h42.951c2.05,0,3.708,1.662,3.708,3.713v16.537C331.996,368.683,330.338,370.345,328.288,370.345L328.288,370.345z"/>
</g>
</svg>
